<svg xmlns="http://www.w3.org/2000/svg" width="720" height="520" viewBox="0 0 720 520" role="img" aria-label="object clusters (constructed held-out)"><title>object clusters (constructed held-out)</title><rect width="720" height="520" fill="#ffffff"/><polygon points="510.9,295.0 585.5,347.7 656.5,332.6 630.9,315.2 584.4,285.1 510.9,295.0" fill="#c9db79" fill-opacity="0.13" stroke="#c9db79" stroke-width="1.2" stroke-opacity="0.8"/><polygon points="285.1,209.7 324.5,223.9 351.8,224.9 369.6,205.8 374.6,85.7 287.3,183.3 285.1,209.7" fill="#90db79" fill-opacity="0.13" stroke="#90db79" stroke-width="1.2" stroke-opacity="0.8"/><polygon points="324.0,306.5 392.4,281.9 399.4,94.1 324.2,258.6 324.0,306.5" fill="#b3db79" fill-opacity="0.13" stroke="#b3db79" stroke-width="1.2" stroke-opacity="0.8"/><polygon points="302.1,424.9 375.5,409.0 374.6,234.0 307.8,404.8 302.1,424.9" fill="#7bdb79" fill-opacity="0.13" stroke="#7bdb79" stroke-width="1.2" stroke-opacity="0.8"/><polygon points="340.2,205.9 414.4,191.3 424.3,165.8 361.3,153.0 351.5,159.8 340.2,205.9" fill="#9edb79" fill-opacity="0.13" stroke="#9edb79" stroke-width="1.2" stroke-opacity="0.8"/><polygon points="150.0,302.1 172.8,316.1 205.4,336.2 286.8,317.1 256.7,139.5 150.0,302.1" fill="#c1db79" fill-opacity="0.13" stroke="#c1db79" stroke-width="1.2" stroke-opacity="0.8"/><polygon points="603.8,453.6 623.1,458.5 664.2,424.4 631.2,416.7 620.6,417.2 603.8,453.6" fill="#88db79" fill-opacity="0.13" stroke="#88db79" stroke-width="1.2" stroke-opacity="0.8"/><polygon points="254.0,270.9 288.3,387.2 303.8,386.8 347.6,382.2 355.4,370.7 254.0,270.9" fill="#abdb79" fill-opacity="0.13" stroke="#abdb79" stroke-width="1.2" stroke-opacity="0.8"/><polygon points="34.0,453.1 96.9,468.0 109.3,449.1 96.5,398.2 41.2,439.0 34.0,453.1" fill="#79db7f" fill-opacity="0.13" stroke="#79db7f" stroke-width="1.2" stroke-opacity="0.8"/><polygon points="312.9,259.5 325.9,287.4 332.5,299.3 407.4,278.2 312.9,259.5" fill="#80db79" fill-opacity="0.13" stroke="#80db79" stroke-width="1.2" stroke-opacity="0.8"/><polygon points="306.2,266.6 311.5,282.9 350.4,284.3 306.2,266.6" fill="#a3db79" fill-opacity="0.13" stroke="#a3db79" stroke-width="1.2" stroke-opacity="0.8"/><polygon points="498.9,403.7 548.7,425.5 634.9,396.0 524.4,385.0 498.9,403.7" fill="#c6db79" fill-opacity="0.13" stroke="#c6db79" stroke-width="1.2" stroke-opacity="0.8"/><polygon points="323.3,341.1 340.3,347.7 442.2,334.7 400.2,156.3 323.3,341.1" fill="#8ddb79" fill-opacity="0.13" stroke="#8ddb79" stroke-width="1.2" stroke-opacity="0.8"/><polygon points="273.3,340.0 283.6,354.6 337.3,378.9 368.1,331.0 345.0,325.9 315.6,329.6 273.3,340.0" fill="#b0db79" fill-opacity="0.13" stroke="#b0db79" stroke-width="1.2" stroke-opacity="0.8"/><polygon points="502.1,403.6 511.7,420.3 576.4,408.7 603.9,397.6 572.6,212.9 502.1,403.6" fill="#79db7a" fill-opacity="0.13" stroke="#79db7a" stroke-width="1.2" stroke-opacity="0.8"/><polygon points="300.0,129.7 316.9,152.4 341.5,179.0 455.5,165.2 392.3,34.0 300.0,129.7" fill="#9bdb79" fill-opacity="0.13" stroke="#9bdb79" stroke-width="1.2" stroke-opacity="0.8"/><polygon points="246.1,388.2 254.5,398.7 261.0,404.7 268.2,408.6 299.6,421.7 373.7,400.7 329.3,227.9 246.1,388.2" fill="#bddb79" fill-opacity="0.13" stroke="#bddb79" stroke-width="1.2" stroke-opacity="0.8"/><polygon points="309.3,223.2 355.4,219.6 368.4,172.0 383.2,64.8 309.3,223.2" fill="#85db79" fill-opacity="0.13" stroke="#85db79" stroke-width="1.2" stroke-opacity="0.8"/><polygon points="309.7,236.9 437.2,209.0 376.2,189.9 329.8,185.9 325.7,187.2 309.7,236.9" fill="#a8db79" fill-opacity="0.13" stroke="#a8db79" stroke-width="1.2" stroke-opacity="0.8"/><polygon points="304.2,295.2 313.6,334.3 344.8,336.2 448.8,314.9 365.8,289.2 310.3,292.5 304.2,295.2" fill="#79db82" fill-opacity="0.13" stroke="#79db82" stroke-width="1.2" stroke-opacity="0.8"/><polygon points="274.0,361.2 324.2,391.9 334.2,341.8 323.2,341.6 276.5,352.3 274.0,361.2" fill="#b5db79" fill-opacity="0.13" stroke="#b5db79" stroke-width="1.2" stroke-opacity="0.8"/><polygon points="286.6,288.5 310.1,306.5 346.2,309.0 384.4,279.6 381.8,125.2 291.1,278.6 286.6,288.5" fill="#7ddb79" fill-opacity="0.13" stroke="#7ddb79" stroke-width="1.2" stroke-opacity="0.8"/><polygon points="298.4,192.0 416.5,155.8 337.2,127.9 298.4,192.0" fill="#a0db79" fill-opacity="0.13" stroke="#a0db79" stroke-width="1.2" stroke-opacity="0.8"/><polygon points="573.4,354.9 615.0,358.4 686.0,343.3 639.5,313.2 632.9,310.7 592.9,340.3 573.4,354.9" fill="#c2db79" fill-opacity="0.13" stroke="#c2db79" stroke-width="1.2" stroke-opacity="0.8"/><polygon points="467.4,370.5 482.2,409.5 532.5,404.5 534.7,370.0 467.4,370.5" fill="#addb79" fill-opacity="0.13" stroke="#addb79" stroke-width="1.2" stroke-opacity="0.8"/><polygon points="556.8,411.9 574.3,442.9 593.6,447.8 634.7,413.7 638.5,403.6 556.8,411.9" fill="#79db7d" fill-opacity="0.13" stroke="#79db7d" stroke-width="1.2" stroke-opacity="0.8"/><polygon points="327.2,262.5 327.5,280.9 428.3,265.0 383.0,127.3 327.2,262.5" fill="#97db79" fill-opacity="0.13" stroke="#97db79" stroke-width="1.2" stroke-opacity="0.8"/><polygon points="582.7,139.4 608.2,156.8 637.7,167.5 582.7,139.4" fill="#82db79" fill-opacity="0.13" stroke="#82db79" stroke-width="1.2" stroke-opacity="0.8"/><polygon points="171.9,373.2 197.6,374.6 293.6,367.5 175.6,363.0 172.0,365.6 171.9,373.2" fill="#7adb79" fill-opacity="0.13" stroke="#7adb79" stroke-width="1.2" stroke-opacity="0.8"/><polygon points="245.4,250.6 304.0,259.5 300.0,251.0 245.4,250.6" fill="#9cdb79" fill-opacity="0.13" stroke="#9cdb79" stroke-width="1.2" stroke-opacity="0.8"/><polygon points="242.6,241.3 340.3,186.8 274.1,171.1 242.6,241.3" fill="#87db79" fill-opacity="0.13" stroke="#87db79" stroke-width="1.2" stroke-opacity="0.8"/><circle cx="601.3" cy="329.2" r="2.4" fill="#c9db79" fill-opacity="0.85"/><circle cx="369.6" cy="205.8" r="2.4" fill="#90db79" fill-opacity="0.85"/><circle cx="392.4" cy="281.9" r="2.4" fill="#b3db79" fill-opacity="0.85"/><circle cx="375.5" cy="409.0" r="2.4" fill="#7bdb79" fill-opacity="0.85"/><circle cx="414.4" cy="191.3" r="2.4" fill="#9edb79" fill-opacity="0.85"/><circle cx="227.0" cy="313.2" r="2.4" fill="#c1db79" fill-opacity="0.85"/><circle cx="626.9" cy="433.1" r="2.4" fill="#88db79" fill-opacity="0.85"/><circle cx="355.4" cy="370.7" r="2.4" fill="#abdb79" fill-opacity="0.85"/><circle cx="109.3" cy="449.1" r="2.4" fill="#79db7f" fill-opacity="0.85"/><circle cx="285.1" cy="209.7" r="2.4" fill="#90db79" fill-opacity="0.85"/><circle cx="280.4" cy="359.2" r="2.4" fill="#95db79" fill-opacity="0.85"/><circle cx="245.4" cy="250.6" r="2.4" fill="#9cdb79" fill-opacity="0.85"/><circle cx="310.1" cy="306.5" r="2.4" fill="#7ddb79" fill-opacity="0.85"/><circle cx="311.5" cy="282.9" r="2.4" fill="#a3db79" fill-opacity="0.85"/><circle cx="313.4" cy="153.2" r="2.4" fill="#b8db79" fill-opacity="0.85"/><circle cx="302.1" cy="424.9" r="2.4" fill="#7bdb79" fill-opacity="0.85"/><circle cx="498.9" cy="403.7" r="2.4" fill="#c6db79" fill-opacity="0.85"/><circle cx="323.3" cy="341.1" r="2.4" fill="#8ddb79" fill-opacity="0.85"/><circle cx="340.2" cy="205.9" r="2.4" fill="#9edb79" fill-opacity="0.85"/><circle cx="288.0" cy="157.6" r="2.4" fill="#b8db79" fill-opacity="0.85"/><circle cx="172.8" cy="316.1" r="2.4" fill="#c1db79" fill-opacity="0.85"/><circle cx="298.8" cy="356.9" r="2.4" fill="#b0db79" fill-opacity="0.85"/><circle cx="502.1" cy="403.6" r="2.4" fill="#79db7a" fill-opacity="0.85"/><circle cx="288.3" cy="387.2" r="2.4" fill="#abdb79" fill-opacity="0.85"/><circle cx="74.7" cy="447.2" r="2.4" fill="#79db7f" fill-opacity="0.85"/><circle cx="375.1" cy="268.2" r="2.4" fill="#b3db79" fill-opacity="0.85"/><circle cx="364.8" cy="143.2" r="2.4" fill="#9bdb79" fill-opacity="0.85"/><circle cx="351.6" cy="404.1" r="2.4" fill="#7bdb79" fill-opacity="0.85"/><circle cx="402.1" cy="165.8" r="2.4" fill="#9edb79" fill-opacity="0.85"/><circle cx="203.5" cy="308.5" r="2.4" fill="#c1db79" fill-opacity="0.85"/><circle cx="297.6" cy="398.1" r="2.4" fill="#bddb79" fill-opacity="0.85"/><circle cx="74.3" cy="443.6" r="2.4" fill="#79db7f" fill-opacity="0.85"/><circle cx="578.3" cy="309.2" r="2.4" fill="#c9db79" fill-opacity="0.85"/><circle cx="319.5" cy="184.7" r="2.4" fill="#90db79" fill-opacity="0.85"/><circle cx="328.7" cy="181.6" r="2.4" fill="#85db79" fill-opacity="0.85"/><circle cx="330.4" cy="281.7" r="2.4" fill="#7ddb79" fill-opacity="0.85"/><circle cx="352.2" cy="259.4" r="2.4" fill="#b3db79" fill-opacity="0.85"/><circle cx="329.8" cy="185.9" r="2.4" fill="#a8db79" fill-opacity="0.85"/><circle cx="524.4" cy="385.0" r="2.4" fill="#c6db79" fill-opacity="0.85"/><circle cx="552.7" cy="291.8" r="2.4" fill="#c9db79" fill-opacity="0.85"/><circle cx="352.2" cy="315.4" r="2.4" fill="#8ddb79" fill-opacity="0.85"/><circle cx="365.4" cy="165.5" r="2.4" fill="#9edb79" fill-opacity="0.85"/><circle cx="198.0" cy="294.3" r="2.4" fill="#c1db79" fill-opacity="0.85"/><circle cx="315.6" cy="329.6" r="2.4" fill="#b0db79" fill-opacity="0.85"/><circle cx="542.7" cy="389.9" r="2.4" fill="#79db7a" fill-opacity="0.85"/><circle cx="277.2" cy="380.8" r="2.4" fill="#bddb79" fill-opacity="0.85"/><circle cx="312.1" cy="359.3" r="2.4" fill="#abdb79" fill-opacity="0.85"/><circle cx="329.8" cy="295.5" r="2.4" fill="#79db82" fill-opacity="0.85"/><circle cx="312.9" cy="259.5" r="2.4" fill="#80db79" fill-opacity="0.85"/><circle cx="77.9" cy="423.7" r="2.4" fill="#79db7f" fill-opacity="0.85"/><circle cx="638.5" cy="403.6" r="2.4" fill="#79db7d" fill-opacity="0.85"/><circle cx="362.4" cy="165.7" r="2.4" fill="#85db79" fill-opacity="0.85"/><circle cx="323.2" cy="341.6" r="2.4" fill="#b5db79" fill-opacity="0.85"/><circle cx="374.0" cy="274.1" r="2.4" fill="#7ddb79" fill-opacity="0.85"/><circle cx="382.7" cy="255.2" r="2.4" fill="#b3db79" fill-opacity="0.85"/><circle cx="356.3" cy="406.8" r="2.4" fill="#7bdb79" fill-opacity="0.85"/><circle cx="376.2" cy="189.9" r="2.4" fill="#a8db79" fill-opacity="0.85"/><circle cx="382.0" cy="322.6" r="2.4" fill="#8ddb79" fill-opacity="0.85"/><circle cx="337.2" cy="127.9" r="2.4" fill="#a0db79" fill-opacity="0.85"/><circle cx="215.2" cy="300.9" r="2.4" fill="#c1db79" fill-opacity="0.85"/><circle cx="343.7" cy="329.1" r="2.4" fill="#b0db79" fill-opacity="0.85"/><circle cx="668.0" cy="414.4" r="2.4" fill="#92db79" fill-opacity="0.85"/><circle cx="594.7" cy="391.2" r="2.4" fill="#79db7a" fill-opacity="0.85"/><circle cx="645.0" cy="320.3" r="2.4" fill="#c2db79" fill-opacity="0.85"/><circle cx="303.2" cy="389.2" r="2.4" fill="#bddb79" fill-opacity="0.85"/><circle cx="403.4" cy="297.4" r="2.4" fill="#8adb79" fill-opacity="0.85"/><circle cx="75.9" cy="442.7" r="2.4" fill="#79db7f" fill-opacity="0.85"/><circle cx="492.5" cy="393.0" r="2.4" fill="#addb79" fill-opacity="0.85"/><circle cx="297.3" cy="204.7" r="2.4" fill="#90db79" fill-opacity="0.85"/><circle cx="324.7" cy="141.7" r="2.4" fill="#9bdb79" fill-opacity="0.85"/><circle cx="363.7" cy="182.9" r="2.4" fill="#9edb79" fill-opacity="0.85"/><circle cx="177.0" cy="310.3" r="2.4" fill="#c1db79" fill-opacity="0.85"/><circle cx="313.0" cy="322.2" r="2.4" fill="#79db82" fill-opacity="0.85"/><circle cx="73.5" cy="452.9" r="2.4" fill="#79db7f" fill-opacity="0.85"/><circle cx="634.7" cy="413.7" r="2.4" fill="#79db7d" fill-opacity="0.85"/><circle cx="368.4" cy="172.0" r="2.4" fill="#85db79" fill-opacity="0.85"/><circle cx="334.2" cy="341.8" r="2.4" fill="#b5db79" fill-opacity="0.85"/><circle cx="384.4" cy="279.6" r="2.4" fill="#7ddb79" fill-opacity="0.85"/><circle cx="383.2" cy="126.4" r="2.4" fill="#9bdb79" fill-opacity="0.85"/><circle cx="593.3" cy="291.5" r="2.4" fill="#c9db79" fill-opacity="0.85"/><circle cx="424.3" cy="165.8" r="2.4" fill="#9edb79" fill-opacity="0.85"/><circle cx="225.6" cy="295.4" r="2.4" fill="#c1db79" fill-opacity="0.85"/><circle cx="368.1" cy="331.0" r="2.4" fill="#b0db79" fill-opacity="0.85"/><circle cx="664.2" cy="424.4" r="2.4" fill="#88db79" fill-opacity="0.85"/><circle cx="603.9" cy="397.6" r="2.4" fill="#79db7a" fill-opacity="0.85"/><circle cx="101.9" cy="441.2" r="2.4" fill="#79db7f" fill-opacity="0.85"/><circle cx="532.8" cy="388.9" r="2.4" fill="#addb79" fill-opacity="0.85"/><circle cx="287.3" cy="183.3" r="2.4" fill="#90db79" fill-opacity="0.85"/><circle cx="324.2" cy="258.6" r="2.4" fill="#b3db79" fill-opacity="0.85"/><circle cx="300.0" cy="129.7" r="2.4" fill="#9bdb79" fill-opacity="0.85"/><circle cx="307.8" cy="404.8" r="2.4" fill="#7bdb79" fill-opacity="0.85"/><circle cx="351.5" cy="159.8" r="2.4" fill="#9edb79" fill-opacity="0.85"/><circle cx="150.0" cy="302.1" r="2.4" fill="#c1db79" fill-opacity="0.85"/><circle cx="246.1" cy="388.2" r="2.4" fill="#bddb79" fill-opacity="0.85"/><circle cx="304.2" cy="295.2" r="2.4" fill="#79db82" fill-opacity="0.85"/><circle cx="41.2" cy="439.0" r="2.4" fill="#79db7f" fill-opacity="0.85"/><circle cx="276.5" cy="352.3" r="2.4" fill="#b5db79" fill-opacity="0.85"/><circle cx="316.4" cy="286.1" r="2.4" fill="#7ddb79" fill-opacity="0.85"/><circle cx="330.4" cy="128.7" r="2.4" fill="#9bdb79" fill-opacity="0.85"/><circle cx="329.3" cy="411.7" r="2.4" fill="#7bdb79" fill-opacity="0.85"/><circle cx="325.7" cy="187.2" r="2.4" fill="#a8db79" fill-opacity="0.85"/><circle cx="349.2" cy="319.2" r="2.4" fill="#8ddb79" fill-opacity="0.85"/><circle cx="371.1" cy="158.8" r="2.4" fill="#9edb79" fill-opacity="0.85"/><circle cx="167.2" cy="302.0" r="2.4" fill="#c1db79" fill-opacity="0.85"/><circle cx="553.7" cy="403.6" r="2.4" fill="#79db7a" fill-opacity="0.85"/><circle cx="254.5" cy="398.7" r="2.4" fill="#bddb79" fill-opacity="0.85"/><circle cx="302.3" cy="366.8" r="2.4" fill="#abdb79" fill-opacity="0.85"/><circle cx="34.0" cy="453.1" r="2.4" fill="#79db7f" fill-opacity="0.85"/><circle cx="327.2" cy="262.5" r="2.4" fill="#97db79" fill-opacity="0.85"/><circle cx="586.8" cy="238.7" r="2.4" fill="#badb79" fill-opacity="0.85"/><circle cx="608.2" cy="156.8" r="2.4" fill="#82db79" fill-opacity="0.85"/><circle cx="311.2" cy="213.3" r="2.4" fill="#a5db79" fill-opacity="0.85"/><circle cx="374.6" cy="85.7" r="2.4" fill="#90db79" fill-opacity="0.85"/><circle cx="383.2" cy="64.8" r="2.4" fill="#85db79" fill-opacity="0.85"/><circle cx="254.8" cy="185.7" r="2.4" fill="#c8db79" fill-opacity="0.85"/><circle cx="381.8" cy="125.2" r="2.4" fill="#7ddb79" fill-opacity="0.85"/><circle cx="388.5" cy="98.6" r="2.4" fill="#8fdb79" fill-opacity="0.85"/><circle cx="399.4" cy="94.1" r="2.4" fill="#b3db79" fill-opacity="0.85"/><circle cx="392.3" cy="34.0" r="2.4" fill="#9bdb79" fill-opacity="0.85"/><circle cx="374.6" cy="234.0" r="2.4" fill="#7bdb79" fill-opacity="0.85"/><circle cx="561.2" cy="221.3" r="2.4" fill="#badb79" fill-opacity="0.85"/><circle cx="582.7" cy="139.4" r="2.4" fill="#82db79" fill-opacity="0.85"/><circle cx="400.2" cy="156.3" r="2.4" fill="#8ddb79" fill-opacity="0.85"/><circle cx="256.7" cy="139.5" r="2.4" fill="#c1db79" fill-opacity="0.85"/><circle cx="572.6" cy="212.9" r="2.4" fill="#79db7a" fill-opacity="0.85"/><circle cx="637.7" cy="167.5" r="2.4" fill="#82db79" fill-opacity="0.85"/><circle cx="329.3" cy="227.9" r="2.4" fill="#bddb79" fill-opacity="0.85"/><circle cx="390.5" cy="106.0" r="2.4" fill="#b2db79" fill-opacity="0.85"/><circle cx="383.0" cy="127.3" r="2.4" fill="#97db79" fill-opacity="0.85"/><circle cx="656.5" cy="332.6" r="2.4" fill="#c9db79" fill-opacity="0.85"/><circle cx="293.6" cy="367.5" r="2.4" fill="#7adb79" fill-opacity="0.85"/><circle cx="455.5" cy="165.2" r="2.4" fill="#9bdb79" fill-opacity="0.85"/><circle cx="437.2" cy="209.0" r="2.4" fill="#a8db79" fill-opacity="0.85"/><circle cx="634.9" cy="396.0" r="2.4" fill="#c6db79" fill-opacity="0.85"/><circle cx="630.9" cy="315.2" r="2.4" fill="#c9db79" fill-opacity="0.85"/><circle cx="442.2" cy="334.7" r="2.4" fill="#8ddb79" fill-opacity="0.85"/><circle cx="416.5" cy="155.8" r="2.4" fill="#a0db79" fill-opacity="0.85"/><circle cx="286.8" cy="317.1" r="2.4" fill="#c1db79" fill-opacity="0.85"/><circle cx="686.0" cy="343.3" r="2.4" fill="#c2db79" fill-opacity="0.85"/><circle cx="373.7" cy="400.7" r="2.4" fill="#bddb79" fill-opacity="0.85"/><circle cx="448.8" cy="314.9" r="2.4" fill="#79db82" fill-opacity="0.85"/><circle cx="407.4" cy="278.2" r="2.4" fill="#80db79" fill-opacity="0.85"/><circle cx="428.3" cy="265.0" r="2.4" fill="#97db79" fill-opacity="0.85"/><circle cx="574.3" cy="442.9" r="2.4" fill="#79db7d" fill-opacity="0.85"/><circle cx="532.5" cy="404.5" r="2.4" fill="#addb79" fill-opacity="0.85"/><circle cx="585.5" cy="347.7" r="2.4" fill="#c9db79" fill-opacity="0.85"/><circle cx="312.4" cy="377.9" r="2.4" fill="#b5db79" fill-opacity="0.85"/><circle cx="300.0" cy="251.0" r="2.4" fill="#9cdb79" fill-opacity="0.85"/><circle cx="346.2" cy="309.0" r="2.4" fill="#7ddb79" fill-opacity="0.85"/><circle cx="350.4" cy="284.3" r="2.4" fill="#a3db79" fill-opacity="0.85"/><circle cx="344.1" cy="215.0" r="2.4" fill="#a8db79" fill-opacity="0.85"/><circle cx="548.7" cy="425.5" r="2.4" fill="#c6db79" fill-opacity="0.85"/><circle cx="603.8" cy="453.6" r="2.4" fill="#88db79" fill-opacity="0.85"/><circle cx="615.0" cy="358.4" r="2.4" fill="#c2db79" fill-opacity="0.85"/><circle cx="344.8" cy="336.2" r="2.4" fill="#79db82" fill-opacity="0.85"/><circle cx="325.9" cy="287.4" r="2.4" fill="#80db79" fill-opacity="0.85"/><circle cx="593.6" cy="447.8" r="2.4" fill="#79db7d" fill-opacity="0.85"/><circle cx="351.8" cy="224.9" r="2.4" fill="#90db79" fill-opacity="0.85"/><circle cx="355.4" cy="219.6" r="2.4" fill="#85db79" fill-opacity="0.85"/><circle cx="324.2" cy="391.9" r="2.4" fill="#b5db79" fill-opacity="0.85"/><circle cx="304.0" cy="259.5" r="2.4" fill="#9cdb79" fill-opacity="0.85"/><circle cx="332.3" cy="164.9" r="2.4" fill="#a0db79" fill-opacity="0.85"/><circle cx="337.3" cy="378.9" r="2.4" fill="#b0db79" fill-opacity="0.85"/><circle cx="623.1" cy="458.5" r="2.4" fill="#88db79" fill-opacity="0.85"/><circle cx="576.4" cy="408.7" r="2.4" fill="#79db7a" fill-opacity="0.85"/><circle cx="299.6" cy="421.7" r="2.4" fill="#bddb79" fill-opacity="0.85"/><circle cx="347.6" cy="382.2" r="2.4" fill="#abdb79" fill-opacity="0.85"/><circle cx="332.5" cy="299.3" r="2.4" fill="#80db79" fill-opacity="0.85"/><circle cx="96.9" cy="468.0" r="2.4" fill="#79db7f" fill-opacity="0.85"/><circle cx="556.8" cy="411.9" r="2.4" fill="#79db7d" fill-opacity="0.85"/><circle cx="285.9" cy="361.3" r="2.4" fill="#b5db79" fill-opacity="0.85"/><circle cx="175.6" cy="363.0" r="2.4" fill="#7adb79" fill-opacity="0.85"/><circle cx="331.9" cy="300.7" r="2.4" fill="#7ddb79" fill-opacity="0.85"/><circle cx="326.8" cy="409.1" r="2.4" fill="#7bdb79" fill-opacity="0.85"/><circle cx="293.1" cy="352.5" r="2.4" fill="#b0db79" fill-opacity="0.85"/><circle cx="545.3" cy="406.0" r="2.4" fill="#79db7a" fill-opacity="0.85"/><circle cx="261.0" cy="404.7" r="2.4" fill="#bddb79" fill-opacity="0.85"/><circle cx="326.6" cy="308.6" r="2.4" fill="#79db82" fill-opacity="0.85"/><circle cx="327.5" cy="280.9" r="2.4" fill="#97db79" fill-opacity="0.85"/><circle cx="482.2" cy="409.5" r="2.4" fill="#addb79" fill-opacity="0.85"/><circle cx="309.3" cy="223.2" r="2.4" fill="#85db79" fill-opacity="0.85"/><circle cx="254.0" cy="270.9" r="2.4" fill="#abdb79" fill-opacity="0.85"/><circle cx="181.7" cy="387.8" r="2.4" fill="#bfdb79" fill-opacity="0.85"/><circle cx="324.0" cy="306.5" r="2.4" fill="#b3db79" fill-opacity="0.85"/><circle cx="309.7" cy="236.9" r="2.4" fill="#a8db79" fill-opacity="0.85"/><circle cx="340.3" cy="347.7" r="2.4" fill="#8ddb79" fill-opacity="0.85"/><circle cx="298.4" cy="192.0" r="2.4" fill="#a0db79" fill-opacity="0.85"/><circle cx="205.4" cy="336.2" r="2.4" fill="#c1db79" fill-opacity="0.85"/><circle cx="555.3" cy="457.6" r="2.4" fill="#92db79" fill-opacity="0.85"/><circle cx="511.7" cy="420.3" r="2.4" fill="#79db7a" fill-opacity="0.85"/><circle cx="573.4" cy="354.9" r="2.4" fill="#c2db79" fill-opacity="0.85"/><circle cx="270.8" cy="407.6" r="2.4" fill="#bddb79" fill-opacity="0.85"/><circle cx="316.6" cy="366.6" r="2.4" fill="#abdb79" fill-opacity="0.85"/><circle cx="313.6" cy="334.3" r="2.4" fill="#79db82" fill-opacity="0.85"/><circle cx="87.4" cy="456.7" r="2.4" fill="#79db7f" fill-opacity="0.85"/><circle cx="573.4" cy="426.6" r="2.4" fill="#79db7d" fill-opacity="0.85"/><circle cx="274.0" cy="361.2" r="2.4" fill="#b5db79" fill-opacity="0.85"/><circle cx="172.0" cy="365.6" r="2.4" fill="#7adb79" fill-opacity="0.85"/><circle cx="316.9" cy="152.4" r="2.4" fill="#9bdb79" fill-opacity="0.85"/><circle cx="348.0" cy="204.9" r="2.4" fill="#a8db79" fill-opacity="0.85"/><circle cx="347.3" cy="327.1" r="2.4" fill="#8ddb79" fill-opacity="0.85"/><circle cx="357.4" cy="191.2" r="2.4" fill="#9edb79" fill-opacity="0.85"/><circle cx="178.5" cy="314.6" r="2.4" fill="#c1db79" fill-opacity="0.85"/><circle cx="283.6" cy="354.6" r="2.4" fill="#b0db79" fill-opacity="0.85"/><circle cx="303.8" cy="386.8" r="2.4" fill="#abdb79" fill-opacity="0.85"/><circle cx="339.8" cy="319.4" r="2.4" fill="#79db82" fill-opacity="0.85"/><circle cx="46.3" cy="455.5" r="2.4" fill="#79db7f" fill-opacity="0.85"/><circle cx="242.6" cy="241.3" r="2.4" fill="#87db79" fill-opacity="0.85"/><circle cx="286.6" cy="288.5" r="2.4" fill="#7ddb79" fill-opacity="0.85"/><circle cx="273.3" cy="340.0" r="2.4" fill="#b0db79" fill-opacity="0.85"/><circle cx="247.0" cy="387.2" r="2.4" fill="#bddb79" fill-opacity="0.85"/><circle cx="467.4" cy="370.5" r="2.4" fill="#addb79" fill-opacity="0.85"/><circle cx="536.5" cy="312.3" r="2.4" fill="#c9db79" fill-opacity="0.85"/><circle cx="292.4" cy="193.1" r="2.4" fill="#90db79" fill-opacity="0.85"/><circle cx="250.8" cy="232.0" r="2.4" fill="#87db79" fill-opacity="0.85"/><circle cx="187.8" cy="337.6" r="2.4" fill="#aadb79" fill-opacity="0.85"/><circle cx="291.1" cy="278.6" r="2.4" fill="#7ddb79" fill-opacity="0.85"/><circle cx="306.2" cy="266.6" r="2.4" fill="#a3db79" fill-opacity="0.85"/><circle cx="323.9" cy="220.5" r="2.4" fill="#a8db79" fill-opacity="0.85"/><circle cx="481.4" cy="367.9" r="2.4" fill="#79db80" fill-opacity="0.85"/><circle cx="510.9" cy="295.0" r="2.4" fill="#c9db79" fill-opacity="0.85"/><circle cx="340.3" cy="186.8" r="2.4" fill="#87db79" fill-opacity="0.85"/><circle cx="274.1" cy="171.1" r="2.4" fill="#87db79" fill-opacity="0.85"/><circle cx="536.4" cy="396.1" r="2.4" fill="#79db80" fill-opacity="0.85"/><circle cx="96.5" cy="398.2" r="2.4" fill="#79db7f" fill-opacity="0.85"/><circle cx="524.6" cy="388.3" r="2.4" fill="#addb79" fill-opacity="0.85"/><circle cx="317.5" cy="191.1" r="2.4" fill="#90db79" fill-opacity="0.85"/><circle cx="345.9" cy="261.9" r="2.4" fill="#b3db79" fill-opacity="0.85"/><circle cx="342.7" cy="141.7" r="2.4" fill="#9bdb79" fill-opacity="0.85"/><circle cx="320.5" cy="408.3" r="2.4" fill="#7bdb79" fill-opacity="0.85"/><circle cx="361.3" cy="153.0" r="2.4" fill="#9edb79" fill-opacity="0.85"/><circle cx="173.1" cy="291.4" r="2.4" fill="#c1db79" fill-opacity="0.85"/><circle cx="270.4" cy="392.3" r="2.4" fill="#bddb79" fill-opacity="0.85"/><circle cx="310.3" cy="292.5" r="2.4" fill="#79db82" fill-opacity="0.85"/><circle cx="55.6" cy="439.0" r="2.4" fill="#79db7f" fill-opacity="0.85"/><circle cx="265.0" cy="398.7" r="2.4" fill="#94db79" fill-opacity="0.85"/><circle cx="318.0" cy="201.1" r="2.4" fill="#90db79" fill-opacity="0.85"/><circle cx="290.8" cy="364.7" r="2.4" fill="#b5db79" fill-opacity="0.85"/><circle cx="171.9" cy="373.2" r="2.4" fill="#7adb79" fill-opacity="0.85"/><circle cx="350.8" cy="282.8" r="2.4" fill="#b3db79" fill-opacity="0.85"/><circle cx="323.7" cy="419.4" r="2.4" fill="#7bdb79" fill-opacity="0.85"/><circle cx="346.8" cy="211.4" r="2.4" fill="#a8db79" fill-opacity="0.85"/><circle cx="384.7" cy="180.3" r="2.4" fill="#9edb79" fill-opacity="0.85"/><circle cx="616.5" cy="444.0" r="2.4" fill="#88db79" fill-opacity="0.85"/><circle cx="615.5" cy="342.3" r="2.4" fill="#c2db79" fill-opacity="0.85"/><circle cx="268.2" cy="408.6" r="2.4" fill="#bddb79" fill-opacity="0.85"/><circle cx="313.7" cy="375.4" r="2.4" fill="#abdb79" fill-opacity="0.85"/><circle cx="315.7" cy="319.6" r="2.4" fill="#79db82" fill-opacity="0.85"/><circle cx="58.3" cy="454.9" r="2.4" fill="#79db7f" fill-opacity="0.85"/><circle cx="563.3" cy="419.4" r="2.4" fill="#79db7d" fill-opacity="0.85"/><circle cx="563.4" cy="329.5" r="2.4" fill="#c9db79" fill-opacity="0.85"/><circle cx="324.5" cy="223.9" r="2.4" fill="#90db79" fill-opacity="0.85"/><circle cx="197.6" cy="374.6" r="2.4" fill="#7adb79" fill-opacity="0.85"/><circle cx="332.4" cy="302.2" r="2.4" fill="#7ddb79" fill-opacity="0.85"/><circle cx="341.5" cy="179.0" r="2.4" fill="#9bdb79" fill-opacity="0.85"/><circle cx="537.8" cy="312.1" r="2.4" fill="#c9db79" fill-opacity="0.85"/><circle cx="592.9" cy="340.3" r="2.4" fill="#c2db79" fill-opacity="0.85"/><circle cx="335.2" cy="353.2" r="2.4" fill="#abdb79" fill-opacity="0.85"/><circle cx="361.6" cy="389.5" r="2.4" fill="#7bdb79" fill-opacity="0.85"/><circle cx="337.2" cy="142.5" r="2.4" fill="#a0db79" fill-opacity="0.85"/><circle cx="620.6" cy="417.2" r="2.4" fill="#88db79" fill-opacity="0.85"/><circle cx="632.9" cy="310.7" r="2.4" fill="#c2db79" fill-opacity="0.85"/><circle cx="534.7" cy="370.0" r="2.4" fill="#addb79" fill-opacity="0.85"/><circle cx="364.0" cy="392.1" r="2.4" fill="#7bdb79" fill-opacity="0.85"/><circle cx="584.4" cy="285.1" r="2.4" fill="#c9db79" fill-opacity="0.85"/><circle cx="347.1" cy="137.1" r="2.4" fill="#a0db79" fill-opacity="0.85"/><circle cx="345.0" cy="325.9" r="2.4" fill="#b0db79" fill-opacity="0.85"/><circle cx="631.2" cy="416.7" r="2.4" fill="#88db79" fill-opacity="0.85"/><circle cx="639.5" cy="313.2" r="2.4" fill="#c2db79" fill-opacity="0.85"/><circle cx="299.9" cy="385.4" r="2.4" fill="#bddb79" fill-opacity="0.85"/><circle cx="365.8" cy="289.2" r="2.4" fill="#79db82" fill-opacity="0.85"/><circle cx="334.2" cy="270.9" r="2.4" fill="#80db79" fill-opacity="0.85"/><circle cx="385.0" cy="265.3" r="2.4" fill="#97db79" fill-opacity="0.85"/><text x="24.0" y="514.0" font-family="ui-monospace, monospace" font-size="11" fill="#1f2933">PCA 2D - axis 1 8% of variance, axis 2 7%; hull = convex hull per cluster</text><text x="24.0" y="16.0" font-family="ui-monospace, monospace" font-size="11" fill="#1f2933">object clusters (constructed held-out)  (44 clusters)</text></svg>
